<svg
        version="1.1"
        id="Layer_1"
        x="0px"
        y="0px"
        viewBox="0 0 512 512"
        width="1em"
        height="1em"
        fill="currentColor"
>
    <g>
        <g>
            <path
                    d="M488.727,108.606H325.818V23.273C325.818,10.42,315.398,0,302.545,0H23.273C10.42,0,0,10.42,0,23.273v465.455
			C0,501.58,10.42,512,23.273,512h186.182h93.091h186.182C501.58,512,512,501.58,512,488.727V131.879
			C512,119.026,501.58,108.606,488.727,108.606z M325.815,155.152v46.545h-93.088v-46.545H325.815z M325.815,248.242v46.536
			l-93.088-0.009v-46.527H325.815z M186.182,131.879v92.971c0,0.04-0.006,0.079-0.006,0.12s0.006,0.079,0.006,0.119v92.829
			c0,0.04-0.006,0.079-0.006,0.119s0.006,0.079,0.006,0.121v147.296h-46.545v-23.282c0-12.853-10.42-23.273-23.273-23.273
			s-23.273,10.42-23.273,23.273v23.282H46.545V46.545h232.727v62.061h-69.818C196.602,108.606,186.182,119.026,186.182,131.879z
			 M465.455,465.455h-93.091v-23.282c0-12.853-10.42-23.273-23.273-23.273c-12.853,0-23.273,10.42-23.273,23.273v23.282h-23.273
			h-69.818v-124.14l116.075,0.012c0.096,0,0.189,0.014,0.286,0.014c0.096,0,0.189-0.014,0.285-0.014l116.081,0.011V465.455z
			 M465.455,294.793l-93.094-0.009v-46.541h93.094V294.793z M465.455,201.697h-93.094v-46.545h93.094V201.697z"
            />
        </g>
    </g>
</svg>