<svg version="1.1" id="Layer_1" xmlns="http://www.w3.org/2000/svg" xmlns:xlink="http://www.w3.org/1999/xlink" x="0px" y="0px"
	 viewBox="0 0 490 490"  xml:space="preserve" width="1em" heigh="1em">
<g>
	<g>
		<path d="M486.095,115.133L486.095,115.133c-3.101-2.299-76.915-57.485-122.824-62.383c-36.907-4.199-100.72,21.994-118.023,29.492
			c-17.403-8.298-82.516-37.29-119.323-29.392C76.115,63.147,7.802,112.934,4.901,115.033c-2.6,1.899-4.101,4.899-4.101,7.998
			L0,428.35c0,3.799,2.1,7.198,5.501,8.898c1.4,0.7,3.001,1.1,4.501,1.1c2.1,0,4.201-0.7,5.901-1.899
			c0.7-0.5,68.413-50.087,114.122-59.484c29.206-6.298,89.717,18.795,110.622,29.092c2.801,1.4,6.101,1.4,8.802,0
			c20.604-10.197,80.716-35.291,110.622-28.992c44.809,9.398,112.622,58.984,113.222,59.484c3.001,2.199,7.101,2.599,10.402,0.9
			c3.401-1.7,5.501-5.099,5.501-8.898l0.8-305.319C490.095,120.032,488.595,117.032,486.095,115.133z M235.046,381.462
			c-25.205-10.897-77.615-30.792-109.121-23.994v0c-35.907,7.398-81.916,35.791-105.821,51.786l0.7-280.925
			c15.303-10.697,70.114-47.787,109.221-55.885c26.905-5.798,80.516,15.596,105.02,27.093V381.462z M469.391,409.355
			L469.391,409.355c-23.805-15.996-69.714-44.488-105.12-51.886c-4.501-1-9.402-1.4-14.603-1.4
			c-31.606,0-73.014,15.996-94.618,25.393V99.837c24.705-10.597,78.115-30.392,106.021-27.193h0.1
			c34.907,3.699,93.218,44.188,108.921,55.585L469.391,409.355z"/>
	</g>
</g>
</svg>
